<svg xmlns="http://www.w3.org/2000/svg" viewBox="0 0 1200 780"><defs><style>.cls-1,.cls-15,.cls-16{fill:#fff;}.cls-2,.cls-3{fill:#dedede;}.cls-16,.cls-3,.cls-4{stroke:#b3b3b3;}.cls-16,.cls-19,.cls-3,.cls-4{stroke-miterlimit:10;}.cls-4{fill:none;}.cls-5{font-size:10.67px;}.cls-10,.cls-14,.cls-17,.cls-18,.cls-5,.cls-6,.cls-7,.cls-8{fill:#4d4d4d;}.cls-10,.cls-5,.cls-6{font-family:Arial-BoldMT, Arial;font-weight:700;}.cls-6{font-size:8.53px;}.cls-7{font-size:8.84px;}.cls-14,.cls-15,.cls-17,.cls-18,.cls-7,.cls-8{font-family:ArialMT, Arial;}.cls-8{font-size:11.3px;}.cls-9{letter-spacing:-0.06em;}.cls-10{font-size:13.6px;}.cls-11{fill:#c9c9c9;}.cls-12{fill:#444;}.cls-13{fill:#aaa;}.cls-14{font-size:20.6px;}.cls-15{font-size:13.51px;}.cls-17{font-size:8.42px;}.cls-18{font-size:8.82px;}.cls-19{fill:#a9a9a9;stroke:#999;}</style></defs><g id="Camada_12" data-name="Camada 12"><rect class="cls-1" width="1200" height="780"/><path class="cls-2" d="M475.3,33.8H724.7a4.7,4.7,0,0,1,4.7,4.7V50.4a0,0,0,0,1,0,0H470.5a0,0,0,0,1,0,0V38.6A4.7,4.7,0,0,1,475.3,33.8Z"/><rect class="cls-3" x="470.5" y="50.1" width="258.9" height="163.64"/><line class="cls-4" x1="729.5" y1="213.8" x2="470.5" y2="50.1"/><line class="cls-4" x1="470.5" y1="213.8" x2="729.5" y2="50.1"/><text class="cls-5" transform="translate(500.7 125.6)">Lorem ipsum dolor sit amet et delectus<tspan x="-14.2" y="12.8">accommodare his consul copiosae legendos</tspan><tspan x="3.3" y="25.6">at vix ad putent delectus delicata usu.</tspan></text><text class="cls-6" transform="translate(537.2 248.4)">Lorem ipsum dolor sit amet et <tspan x="6.2" y="10.2">delectus accommodare his </tspan><tspan x="46" y="20.5">consul.</tspan></text><text class="cls-7" transform="translate(564.2 189.6)">Escolha um hotel</text><text class="cls-8" transform="translate(530.9 232.9)"><tspan class="cls-9">A</tspan><tspan x="6.9" y="0" xml:space="preserve"> cidade que nunca dorme</tspan></text><text class="cls-10" transform="translate(479.4 71.9)">LOGO</text><circle class="cls-11" cx="480" cy="41.9" r="3.1"/><circle class="cls-11" cx="490.5" cy="41.9" r="3.1"/><circle class="cls-11" cx="501" cy="41.9" r="3.1"/><rect class="cls-12" x="469.8" y="698.7" width="260.4" height="47.48"/><rect class="cls-13" x="469.8" y="288.8" width="260.4" height="409.88"/><text class="cls-14" transform="translate(550.8 313.4)">Destaques</text><text class="cls-15" transform="translate(576.3 727.6)">Rodapé</text><rect class="cls-16" x="530.5" y="325.3" width="135.3" height="116.99"/><rect class="cls-4" x="547.6" y="336.5" width="100.9" height="46.46"/><line class="cls-4" x1="648.6" y1="383" x2="547.6" y2="336.5"/><line class="cls-4" x1="547.6" y1="383" x2="648.6" y2="336.5"/><text class="cls-17" transform="translate(581 397.5)">Compras</text><text class="cls-18" transform="translate(543.2 418.1)">Lorem ipsum dolor sit amet</text><rect class="cls-16" x="530.5" y="450.9" width="135.3" height="116.99"/><rect class="cls-4" x="547.6" y="462.1" width="100.9" height="46.46"/><line class="cls-4" x1="648.6" y1="508.5" x2="547.6" y2="462.1"/><line class="cls-4" x1="547.6" y1="508.5" x2="648.6" y2="462.1"/><text class="cls-17" transform="translate(582.4 523.1)">Parques</text><text class="cls-18" transform="translate(543.2 543.7)">Lorem ipsum dolor sit amet</text><rect class="cls-16" x="530.5" y="576.5" width="135.3" height="116.99"/><rect class="cls-4" x="547.6" y="587.7" width="100.9" height="46.46"/><line class="cls-4" x1="648.6" y1="634.1" x2="547.6" y2="587.7"/><line class="cls-4" x1="547.6" y1="634.1" x2="648.6" y2="587.7"/><text class="cls-17" transform="translate(574 648.7)">Gastronomia</text><text class="cls-18" transform="translate(543.2 669.3)">Lorem ipsum dolor sit amet</text><rect class="cls-19" x="697.9" y="56.7" width="21" height="4.11"/><rect class="cls-19" x="697.9" y="65.2" width="21" height="4.11"/><rect class="cls-19" x="697.9" y="73.6" width="21" height="4.11"/></g></svg>